<svg id="eO4TuXZ80xG1" xmlns="http://www.w3.org/2000/svg" xmlns:xlink="http://www.w3.org/1999/xlink" viewBox="0 0 100 100" shape-rendering="geometricPrecision" text-rendering="geometricPrecision" project-id="23e60fba8cc24fcb80e4e1b696d371c6" export-id="5b79792464d14700bc55f61ec8344ce4" cached="false"><path d="M50,5C25.147,5,5,25.147,5,50s20.147,45,45,45s45-20.147,45-45-20.147-45-45-45ZM91.067421,52.399c0,1.104-7.274084,1.192-8.378084,1.192L78.04108,53.59c-.87,0-2.43108-.562-2.69608-1.39l-.033-.104-3.800497,19.910454c-.172.96-.815928,2.202622-1.812928,2.174622-.976-.909-1.406326-1.86524-1.560326-2.82824L64.278,41.14L59.821021,66.001508c-.174.918-1.305808,2.496492-2.240808,2.529492-.939.047-1.908082-3.452844-2.146082-4.356844L52.392083,49.591L49.065716,74.712195c-.18.947-.716716,4.288574-1.672716,4.288574-.026,0,.027.001,0,0-.989-.039-1.428283-1.487769-1.536283-2.472769L41.387,39.877L37.384,68.582c-.139.998-1.232506,5.611076-2.229506,5.599076-1.008-.013-1.626494-4.649076-1.738494-5.650076L31.303749,46.241845L29.013,58.599c-.2.937-1.058,3.346067-1.992,3.305067-.957-.017-1.769-2.432067-1.934-3.375067L23.95,52.063l-.148.336c-.32.725-1.038,1.192-1.83,1.192l-8.71663-.001c-1.104,0-3.500781-.896-3.500781-2s1.488704-1.999,2.592704-1.999h8.322707l1.302-1.050857c.356-.806,2.24-8.765143,3.115-8.663143.875.106,1.511,4.144,1.664,5.011L27.021,50l2.785-14.364c.204-.959,1.060208-6.747406,2.051208-6.709406.979.047,1.781792,5.925406,1.891792,6.900406l1.952393,22.702l4.531116-34.627075c.138-.989.395491-2.212925,1.391491-2.212925.01,0,.02,0,.03,0c1.009.015,1.159762.779,1.269762,1.782L47.393,60.151042l3.084709-17.883807c.174-.918.564126-4.021119,1.498126-4.053119.938-.036,1.781874,4.053119,1.781874,4.053119L57.580213,58.599l5.305496-33.585744c.179-.945.433291-1.600256,1.392291-1.600256.01,0-.009.058,0,.058.972.014,1.836718,8.54235,1.989718,9.50235l4.395578,24.915085L72.792,43.469c.162-.904.716836-5.193884,1.633836-5.254884.907-.062,1.959164,4.121884,2.239164,4.997884l2.402581,6.379l11.457331.367415c1.107-.001,1.842949,1.590297.542509,2.440585Z" transform="translate(0 0.152567)" fill="#27374D"/></svg>
